<svg width="568" height="140" viewBox="0 0 568 140" fill="none" xmlns="http://www.w3.org/2000/svg">
<path d="M202.835 101.5V42.7H227.507C230.963 42.7 234.058 43.54 236.79 45.22C239.578 46.844 241.78 49.084 243.397 51.94C245.069 54.74 245.906 57.904 245.906 61.432C245.906 65.072 245.069 68.348 243.397 71.26C241.78 74.116 239.578 76.412 236.79 78.148C234.058 79.828 230.963 80.668 227.507 80.668H214.878V101.5H202.835ZM214.795 69.664H226.252C228.315 69.664 230.044 68.908 231.437 67.396C232.887 65.828 233.612 63.896 233.612 61.6C233.612 59.304 232.887 57.428 231.437 55.972C230.044 54.46 228.315 53.704 226.252 53.704H214.795V69.664Z" fill="#494D4B"/>
<path d="M275.145 102.34C270.629 102.34 266.615 101.36 263.103 99.4C259.59 97.384 256.83 94.64 254.823 91.168C252.816 87.696 251.812 83.72 251.812 79.24C251.812 74.816 252.816 70.868 254.823 67.396C256.83 63.924 259.59 61.208 263.103 59.248C266.615 57.232 270.629 56.224 275.145 56.224C279.55 56.224 283.509 57.232 287.021 59.248C290.534 61.208 293.294 63.924 295.301 67.396C297.308 70.868 298.312 74.816 298.312 79.24C298.312 83.72 297.308 87.696 295.301 91.168C293.294 94.64 290.534 97.384 287.021 99.4C283.509 101.36 279.55 102.34 275.145 102.34ZM275.145 92.344C277.376 92.344 279.383 91.784 281.167 90.664C282.951 89.488 284.317 87.92 285.265 85.96C286.269 84 286.77 81.76 286.77 79.24C286.77 76.72 286.269 74.48 285.265 72.52C284.317 70.56 282.951 69.02 281.167 67.9C279.383 66.78 277.376 66.22 275.145 66.22C272.86 66.22 270.825 66.78 269.04 67.9C267.256 69.02 265.862 70.56 264.859 72.52C263.855 74.48 263.353 76.72 263.353 79.24C263.353 81.76 263.855 84 264.859 85.96C265.862 87.92 267.256 89.488 269.04 90.664C270.825 91.784 272.86 92.344 275.145 92.344Z" fill="#494D4B"/>
<path d="M324.813 102.34C320.91 102.34 317.426 101.36 314.359 99.4C311.293 97.384 308.867 94.64 307.083 91.168C305.355 87.696 304.49 83.748 304.49 79.324C304.49 74.844 305.355 70.868 307.083 67.396C308.867 63.924 311.293 61.208 314.359 59.248C317.426 57.232 320.91 56.224 324.813 56.224C327.489 56.224 330.026 56.756 332.424 57.82C334.877 58.884 336.856 60.256 338.361 61.936V39.34H349.819V101.5H338.947L338.78 96.208C337.33 97.944 335.351 99.4 332.842 100.576C330.333 101.752 327.657 102.34 324.813 102.34ZM327.322 92.764C330.723 92.764 333.483 91.532 335.602 89.068C337.72 86.548 338.78 83.3 338.78 79.324C338.78 75.292 337.72 72.044 335.602 69.58C333.483 67.06 330.723 65.8 327.322 65.8C323.921 65.8 321.161 67.06 319.042 69.58C316.924 72.044 315.864 75.292 315.864 79.324C315.864 83.3 316.924 86.548 319.042 89.068C321.161 91.532 323.921 92.764 327.322 92.764Z" fill="#494D4B"/>
<path d="M380.552 102.34C376.371 102.34 372.607 101.332 369.262 99.316C365.973 97.3 363.352 94.556 361.401 91.084C359.505 87.612 358.557 83.664 358.557 79.24C358.557 74.872 359.505 70.952 361.401 67.48C363.352 64.008 365.973 61.264 369.262 59.248C372.607 57.232 376.371 56.224 380.552 56.224C384.511 56.224 388.107 56.952 391.341 58.408C394.63 59.864 397.195 61.908 399.035 64.54L392.763 72.1C391.592 70.476 389.975 69.104 387.912 67.984C385.849 66.808 383.758 66.22 381.64 66.22C379.298 66.22 377.207 66.808 375.367 67.984C373.583 69.104 372.161 70.644 371.102 72.604C370.098 74.564 369.597 76.776 369.597 79.24C369.597 81.704 370.126 83.916 371.186 85.876C372.245 87.836 373.695 89.404 375.534 90.58C377.374 91.7 379.437 92.26 381.723 92.26C383.898 92.26 385.905 91.784 387.745 90.832C389.585 89.824 391.257 88.424 392.763 86.632L399.035 94.192C397.139 96.656 394.519 98.644 391.174 100.156C387.828 101.612 384.288 102.34 380.552 102.34Z" fill="#494D4B"/>
<path d="M423.29 102.34C419.61 102.34 416.292 101.332 413.337 99.316C410.382 97.3 408.013 94.556 406.229 91.084C404.5 87.612 403.636 83.664 403.636 79.24C403.636 74.704 404.5 70.728 406.229 67.312C408.013 63.84 410.41 61.124 413.421 59.164C416.488 57.204 419.944 56.224 423.791 56.224C426.914 56.224 429.646 56.868 431.987 58.156C434.329 59.388 436.197 61.012 437.591 63.028V57.148H448.965V101.5H437.507V95.536C435.946 97.496 433.911 99.12 431.402 100.408C428.949 101.696 426.245 102.34 423.29 102.34ZM426.384 92.344C429.785 92.344 432.545 91.14 434.664 88.732C436.782 86.324 437.842 83.16 437.842 79.24C437.842 75.32 436.782 72.156 434.664 69.748C432.545 67.34 429.785 66.136 426.384 66.136C423.039 66.136 420.307 67.34 418.188 69.748C416.125 72.156 415.094 75.32 415.094 79.24C415.094 83.16 416.125 86.324 418.188 88.732C420.307 91.14 423.039 92.344 426.384 92.344Z" fill="#494D4B"/>
<path d="M475.763 102.34C471.693 102.34 468.069 101.668 464.891 100.324C461.713 98.98 459.149 97.076 457.197 94.612L464.389 88.48C466.062 90.328 467.958 91.672 470.076 92.512C472.195 93.296 474.342 93.688 476.516 93.688C478.244 93.688 479.638 93.296 480.698 92.512C481.757 91.728 482.287 90.636 482.287 89.236C482.287 88.004 481.785 87.024 480.781 86.296C479.778 85.624 477.38 84.784 473.589 83.776C467.958 82.32 463.971 80.332 461.63 77.812C459.567 75.572 458.535 72.8 458.535 69.496C458.535 66.864 459.316 64.568 460.877 62.608C462.438 60.592 464.501 59.024 467.066 57.904C469.63 56.784 472.418 56.224 475.429 56.224C478.886 56.224 482.147 56.84 485.214 58.072C488.28 59.304 490.845 60.984 492.908 63.112L486.719 69.916C485.158 68.46 483.346 67.256 481.283 66.304C479.276 65.296 477.408 64.792 475.68 64.792C471.665 64.792 469.658 66.192 469.658 68.992C469.714 70.336 470.327 71.4 471.498 72.184C472.613 72.968 475.15 73.892 479.109 74.956C484.405 76.356 488.141 78.204 490.315 80.5C492.211 82.46 493.159 85.064 493.159 88.312C493.159 91 492.378 93.408 490.817 95.536C489.312 97.664 487.249 99.344 484.628 100.576C482.008 101.752 479.053 102.34 475.763 102.34Z" fill="#494D4B"/>
<path d="M506.145 101.5V67.48H497.782V57.148H506.145V45.808H517.519V57.148H526.802V67.48H517.519V101.5H506.145Z" fill="#494D4B"/>
<path d="M534.463 101.5V57.148H545.503L545.67 64.456C547.119 62.048 549.015 60.088 551.357 58.576C553.754 57.008 556.263 56.224 558.884 56.224C559.887 56.224 560.807 56.308 561.644 56.476C562.536 56.588 563.288 56.756 563.902 56.98L560.807 69.58C560.194 69.244 559.413 68.964 558.466 68.74C557.518 68.516 556.57 68.404 555.622 68.404C552.89 68.404 550.576 69.356 548.681 71.26C546.841 73.108 545.921 75.46 545.921 78.316V101.5H534.463Z" fill="#494D4B"/>
<path d="M132.853 69.6066C132.938 80.6897 130.116 91.6 124.672 101.241C123.967 102.493 123.22 103.718 122.432 104.916C122.042 105.524 121.535 106.049 120.942 106.46C120.349 106.871 119.68 107.159 118.975 107.308C118.27 107.457 117.542 107.464 116.834 107.329C116.126 107.194 115.452 106.919 114.851 106.52C114.25 106.12 113.733 105.606 113.332 105.005C112.93 104.404 112.651 103.728 112.511 103.018C112.371 102.308 112.373 101.578 112.517 100.868C112.66 100.159 112.942 99.4852 113.347 98.8863C118.543 90.9638 121.505 81.7753 121.918 72.2973C122.331 62.8193 120.179 53.4061 115.691 45.0582C111.203 36.7104 104.548 29.7398 96.4311 24.8874C88.3146 20.035 79.0408 17.4822 69.5953 17.5003C51.4397 17.5359 35.3422 27.1089 25.9853 41.4125C20.3918 49.9459 17.4154 59.9408 17.425 70.1576C17.4347 80.3744 20.4301 90.3636 26.0398 98.8863C26.8351 100.097 27.119 101.575 26.829 102.996C26.539 104.417 25.6989 105.664 24.4935 106.463C23.2881 107.262 21.8161 107.547 20.4013 107.256C18.9866 106.965 17.745 106.121 16.9497 104.91C10.7296 95.4292 7.15682 84.4453 6.60416 73.1046C6.05151 61.764 8.53924 50.4821 13.8078 40.4364C19.0763 30.3907 26.9325 21.9493 36.5567 15.9929C46.1808 10.0366 57.2202 6.78377 68.5227 6.57379C68.9202 6.56558 69.3149 6.56285 69.7097 6.56285C86.4018 6.52831 102.426 13.1473 114.264 24.9669C126.102 36.7866 132.788 52.8411 132.853 69.6066V69.6066Z" fill="#494D4B"/>
<path d="M31.5915 79.7804L41.4597 129.087C42.0521 132.046 44.9212 133.964 47.8682 133.369C50.8151 132.774 52.7238 129.892 52.1314 126.932L42.2633 77.6257C41.6709 74.6658 38.8017 72.7486 35.8548 73.3436C32.9079 73.9386 30.9992 76.8205 31.5915 79.7804Z" fill="#04D361"/>
<path d="M41.2716 127.974L38.7697 128.48C35.0522 129.232 31.1891 128.529 27.9706 126.514C24.7521 124.5 22.4215 121.327 21.4553 117.644C21.3818 117.359 21.3137 117.075 21.2566 116.785L17.6712 98.8941C16.8942 95.0105 17.6842 90.9759 19.8675 87.677C22.0508 84.3781 25.4489 82.0848 29.3149 81.3012L31.8167 80.7953L36.2052 102.692L41.2716 127.974Z" fill="#494D4B"/>
<path d="M41.2717 127.974L38.7698 128.48C35.0522 129.232 31.1892 128.529 27.9707 126.515C24.7522 124.5 22.4216 121.327 21.4554 117.644C26.7429 113.043 31.6738 108.045 36.2053 102.692L41.2717 127.974Z" fill="#494D4B"/>
<path d="M125.962 94.8063L124.672 101.24C123.967 102.493 123.22 103.718 122.432 104.915C122.042 105.524 121.535 106.049 120.942 106.46C120.349 106.87 119.68 107.159 118.975 107.308C118.27 107.457 117.542 107.464 116.834 107.329C116.126 107.193 115.452 106.918 114.851 106.519C114.249 106.12 113.733 105.605 113.331 105.004C112.93 104.403 112.651 103.728 112.511 103.018C112.371 102.308 112.373 101.577 112.517 100.868C112.66 100.159 112.942 99.4849 113.347 98.886C117.038 93.2759 119.614 87.0021 120.934 80.4098C122.983 82.134 124.532 84.381 125.417 86.9145C126.302 89.448 126.49 92.1743 125.962 94.8063Z" fill="#494D4B"/>
<path d="M119.508 30.904L111.697 38.7489C106.83 32.1387 100.484 26.7712 93.1699 23.0799C85.8561 19.3887 77.7804 17.4772 69.5953 17.5001C51.4396 17.5356 35.3421 27.1087 25.9853 41.4122L18.0631 33.4551C23.775 25.3028 31.3217 18.6194 40.0896 13.9484C48.8576 9.27743 58.5993 6.75064 68.5227 6.57351C68.9201 6.5653 69.3149 6.56257 69.7096 6.56257C79.308 6.54097 88.7843 8.72281 97.4149 12.9415C106.046 17.1601 113.602 23.304 119.508 30.904V30.904Z" fill="#8257E5"/>
<path d="M97.0351 77.5723L87.167 126.879C86.5746 129.838 88.4833 132.72 91.4303 133.315C94.3772 133.91 97.2464 131.993 97.8388 129.033L107.707 79.727C108.299 76.7671 106.391 73.8853 103.444 73.2903C100.497 72.6953 97.6275 74.6124 97.0351 77.5723Z" fill="#04D361"/>
<path d="M121.715 98.8941L118.13 116.785C117.352 120.669 115.069 124.082 111.785 126.276C108.501 128.469 104.483 129.262 100.617 128.48L98.1151 127.974L100.707 115.049L107.57 80.7953L110.072 81.3012C113.937 82.0858 117.336 84.3779 119.521 87.675C119.822 88.1295 120.098 88.6005 120.346 89.0859C121.9 92.1039 122.383 95.5634 121.715 98.8941V98.8941Z" fill="#494D4B"/>
<path d="M121.715 98.8942L118.13 116.785C117.352 120.669 115.069 124.082 111.785 126.276C108.501 128.469 104.483 129.262 100.617 128.48L98.1151 127.974L100.707 115.049C108.165 107.13 114.75 98.4254 120.346 89.086C121.9 92.1039 122.383 95.5635 121.715 98.8942V98.8942Z" fill="#494D4B"/>
</svg>
